<?xml version="1.0" encoding="UTF-8" standalone="no"?>
<!-- Created with Inkscape (http://www.inkscape.org/) -->

<svg
   width="135.46666mm"
   height="135.46667mm"
   viewBox="0 0 135.46666 135.46667"
   version="1.1"
   id="svg1"
   xmlns:inkscape="http://www.inkscape.org/namespaces/inkscape"
   xmlns:sodipodi="http://sodipodi.sourceforge.net/DTD/sodipodi-0.dtd"
   xmlns="http://www.w3.org/2000/svg"
   xmlns:svg="http://www.w3.org/2000/svg">
  <sodipodi:namedview
     id="namedview1"
     pagecolor="#ffffff"
     bordercolor="#000000"
     borderopacity="0.25"
     inkscape:showpageshadow="2"
     inkscape:pageopacity="0.0"
     inkscape:pagecheckerboard="0"
     inkscape:deskcolor="#d1d1d1"
     inkscape:document-units="mm" />
  <defs
     id="defs1" />
  <path
     id="rect1"
     style="font-variation-settings:normal;opacity:1;fill:#000000;fill-opacity:1;fill-rule:evenodd;stroke:none;stroke-width:0;stroke-linecap:butt;stroke-linejoin:miter;stroke-miterlimit:4;stroke-dasharray:none;stroke-dashoffset:0;stroke-opacity:1;stop-color:#000000;stop-opacity:1"
     d="M 12.023315,2.2459237e-6 C 5.3622929,2.2459237e-6 1.850163e-6,5.3627922 1.850163e-6,12.023788 V 123.44289 c 0,6.66099 5.362291049837,12.02378 12.023313149837,12.02378 H 123.44335 c 6.66102,0 12.02331,-5.36279 12.02331,-12.02378 V 12.023788 C 135.46666,5.3627922 130.10437,2.2459237e-6 123.44335,2.2459237e-6 Z M 25.676075,13.52016 H 109.7906 c 6.66101,0 12.0233,5.362274 12.0233,12.023261 v 61.17416 c 0,6.66101 -5.36229,12.02378 -12.0233,12.02378 H 25.676075 c -6.661024,0 -12.023832,-5.36277 -12.023832,-12.02378 v -61.17416 c 0,-6.660987 5.362808,-12.023261 12.023832,-12.023261 z m 56.689399,98.86148 c 0.93845,0.0255 1.80687,0.23125 2.60908,0.56128 0.79201,0.32584 1.50927,0.76827 2.16431,1.26389 0.65148,0.49291 1.2565,1.04993 1.82309,1.61805 0.56423,0.56573 1.11091,1.16382 1.63204,1.73455 0.52966,0.58004 1.03324,1.13239 1.54556,1.65066 0.51182,0.51777 1.01251,0.98055 1.51969,1.37314 0.5087,0.39379 1.01314,0.70827 1.5264,0.932 0.51379,0.22396 1.04602,0.36147 1.61494,0.39247 0.58252,0.0316 1.15824,-0.0438 1.73923,-0.21125 0.59151,-0.17045 1.18565,-0.43552 1.788396,-0.7777 1.24315,-0.70572 2.46653,-1.70528 3.69796,-2.74214 1.303,-1.0971 2.54916,-2.17684 3.8678,-3.04814 0.68474,-0.45245 1.37396,-0.83806 2.07785,-1.12875 0.734,-0.30314 1.47353,-0.49885 2.22593,-0.56386 0.76661,-0.0657 1.56621,-0.0263 2.35071,0.0746 0.83416,0.10714 1.67532,0.28674 2.4786,0.49913 1.8001,0.47597 3.53677,1.15177 4.84794,1.71695 2.18657,0.94251 3.80239,1.83978 4.27737,2.10683 1.01782,0.57225 0.96975,0.61002 0.96047,0.62703 -0.0118,0.0215 -0.0597,0.0228 -1.06403,-0.4194 -0.37571,-0.16543 -2.29888,-1.01767 -4.39075,-1.76251 -1.33016,-0.47363 -3.07386,-1.03159 -4.83657,-1.38142 -0.78732,-0.15627 -1.59337,-0.27401 -2.37504,-0.32155 -0.73773,-0.0449 -1.45082,-0.0269 -2.10166,0.0788 -0.60187,0.0984 -1.19865,0.30288 -1.8029,0.60529 -0.58163,0.29108 -1.16414,0.66967 -1.76096,1.12357 -1.16765,0.888 -2.26537,1.96237 -3.52969,3.16309 -1.1508,1.09291 -2.43721,2.28673 -3.81137,3.18484 -0.68013,0.44451 -1.40929,0.83604 -2.190706,1.11787 -0.77388,0.27913 -1.60261,0.45207 -2.48637,0.46082 -0.88236,0.009 -1.71369,-0.15058 -2.49931,-0.43389 -0.77551,-0.27966 -1.49397,-0.67538 -2.16432,-1.13393 -0.66547,-0.45522 -1.29141,-0.97766 -1.88574,-1.51812 -0.59072,-0.53718 -1.16516,-1.10643 -1.71591,-1.65222 -0.55769,-0.55265 -1.0882,-1.07784 -1.62427,-1.56524 -0.5354,-0.48678 -1.05237,-0.91343 -1.56835,-1.26492 -0.51702,-0.3522 -1.01306,-0.61503 -1.50207,-0.78754 -0.48663,-0.17166 -0.9706,-0.25577 -1.47256,-0.24594 -0.49787,0.01 -0.9793,0.11844 -1.46168,0.3117 -0.49351,0.19772 -0.99485,0.48749 -1.51554,0.86106 -1.08397,0.77769 -2.1408,1.83607 -3.29151,2.98549 -1.17359,1.17227 -2.41699,2.40923 -3.79014,3.36555 -0.72158,0.50254 -1.49306,0.93821 -2.32534,1.24991 -0.70317,0.26335 -1.44101,0.4345 -2.21298,0.48567 -0.17609,0.0117 -0.35419,0.0172 -0.53487,0.016 -0.95971,-0.007 -1.8672,-0.19766 -2.72351,-0.52917 -0.82222,-0.31831 -1.57863,-0.75844 -2.281319,-1.26336 -0.681991,-0.49006 -1.321625,-1.04706 -1.92924,-1.62479 -0.592986,-0.56382 -1.165208,-1.15693 -1.720575,-1.73402 -0.548381,-0.56986 -1.076082,-1.12012 -1.606663,-1.63152 -0.521454,-0.5026 -1.028847,-0.95112 -1.535728,-1.32654 -0.499133,-0.36968 -0.982651,-0.65678 -1.462205,-0.85485 -0.468902,-0.19366 -0.943433,-0.30617 -1.443046,-0.32154 -0.49587,-0.0153 -0.982192,0.0641 -1.478255,0.23559 -0.498572,0.17231 -1.00836,0.43815 -1.542459,0.79478 -0.532862,0.35582 -1.06863,0.78784 -1.623751,1.27995 -0.555756,0.49267 -1.107538,1.02407 -1.684848,1.58077 -0.570828,0.55044 -1.163685,1.12293 -1.771317,1.66206 -0.61129,0.54236 -1.252034,1.0646 -1.928204,1.51811 -0.68103,0.45678 -1.40699,0.8501 -2.185539,1.1241 -0.789064,0.27769 -1.621071,0.42871 -2.498795,0.40697 -0.872934,-0.0219 -1.684832,-0.20368 -2.438214,-0.48981 -0.760701,-0.28892 -1.463425,-0.6844 -2.113569,-1.13134 -1.312944,-0.90261 -2.519546,-2.09344 -3.592341,-3.17708 -1.180655,-1.19259 -2.198914,-2.25384 -3.295136,-3.13306 -0.559961,-0.44912 -1.109286,-0.82353 -1.662067,-1.1127 -0.574223,-0.30039 -1.146458,-0.5058 -1.731448,-0.60735 -0.631358,-0.10895 -1.327317,-0.12984 -2.050917,-0.087 -0.766705,0.0454 -1.559722,0.16224 -2.336213,0.31792 -1.738975,0.34865 -3.46668,0.9082 -4.785817,1.38402 -2.075626,0.74868 -3.9906151,1.60859 -4.3627951,1.77441 -1.000674,0.44584 -1.048542,0.44402 -1.060408,0.42251 -0.0093,-0.0169 -0.05821,-0.0545 0.955817,-0.63014 0.471107,-0.26742 2.0794421,-1.16921 4.2494011,-2.11459 1.299854,-0.56631 3.020917,-1.24361 4.797727,-1.71747 0.792696,-0.2114 1.621832,-0.38893 2.442357,-0.49343 0.771415,-0.0983 1.556709,-0.13474 2.307735,-0.0637 0.736112,0.0701 1.454114,0.26939 2.161203,0.57474 0.677819,0.29271 1.335845,0.6784 1.985677,1.1303 1.250464,0.86959 2.418675,1.94482 3.639459,3.03468 1.154631,1.0308 2.300483,2.02169 3.481019,2.7261 0.571746,0.34114 1.138796,0.60698 1.708666,0.7808 0.559371,0.17061 1.121215,0.25249 1.698311,0.22989 0.557212,-0.0222 1.086122,-0.15314 1.604075,-0.37383 0.517554,-0.22052 1.031267,-0.53406 1.554368,-0.93045 0.521153,-0.3949 1.038966,-0.86223 1.569901,-1.38504 0.53114,-0.52301 1.055347,-1.08124 1.605629,-1.66621 0.541599,-0.57573 1.108418,-1.17752 1.69158,-1.74646 0.585254,-0.57097 1.207694,-1.12951 1.872801,-1.62219 0.668188,-0.49495 1.396386,-0.93601 2.194859,-1.25818 0.808456,-0.32621 1.681687,-0.52759 2.621508,-0.54315 0.94662,-0.0157 1.830649,0.15729 2.651539,0.4546 0.824021,0.29845 1.576882,0.7194 2.264241,1.19089 0.695396,0.47699 1.345003,1.0204 1.94788,1.56782 0.609354,0.5533 1.205221,1.14251 1.757337,1.68847 0.578788,0.57233 1.109968,1.09767 1.649119,1.58956 0.54792,0.4999 1.06421,0.92785 1.57146,1.27994 0.52013,0.36106 1.00609,0.62459 1.47359,0.79998 0.47731,0.17906 0.94018,0.26829 1.41043,0.27079 0.0892,4.8e-4 0.17715,-0.003 0.26407,-0.008 0.37635,-0.0248 0.75886,-0.1074 1.15774,-0.2532 0.47849,-0.17489 0.98032,-0.44023 1.52124,-0.80566 1.0776,-0.72797 2.11202,-1.70707 3.36141,-2.8985 1.12373,-1.0716 2.43602,-2.32927 3.84553,-3.2682 0.70586,-0.4702 1.47586,-0.88938 2.3124,-1.18364 0.83284,-0.29296 1.72782,-0.46061 2.68157,-0.43493 z" />
</svg>
